<svg width="1024" height="1024" viewBox="0 0 1024 1024" fill="none" xmlns="http://www.w3.org/2000/svg">
<ellipse cx="518" cy="510.5" rx="429" ry="436.5" fill="#D9E7DA"/>
<path d="M499.156 181.55C477.008 184.301 455.68 193.6 436.813 208.841C430.414 214.069 420.461 224.248 415.102 231.181C396.07 255.666 387.648 283.287 389.289 315.64C390.875 346.563 403.289 375.12 425.055 397.734C457.047 430.968 502.766 444.063 547.555 432.728C597.102 420.238 634.289 378.861 642.273 327.36C643.422 319.602 643.641 299.904 642.547 292.421C636.422 249.448 610.937 214.234 572.164 195.306C558.437 188.538 546.625 184.852 531.75 182.596C523.547 181.33 505.555 180.78 499.156 181.55Z" fill="#A72F3B"/>
<path d="M377.367 356.797C367.523 358.833 359.922 361.309 352.812 364.776C340.398 370.828 332.578 378.146 321.094 394.488C293.203 434.159 271.602 470.089 252.297 508.935C227.906 558.18 211.883 603.189 202.531 648.967C196.516 678.57 194.328 699.808 194.328 730.126C194.328 751.31 194.547 756.427 196.734 777.61C197.336 783.333 197.828 788.175 197.828 788.505C197.828 788.78 236.492 789 300.367 789H402.906V787.679C402.906 786.909 402.031 780.141 401.047 772.658C398.531 754.721 397.055 740.855 396.344 729.025C395.687 718.791 395.687 718.681 397.766 701.789C398.477 695.737 399.68 684.182 400.445 676.039C402.633 652.599 403.945 644.676 407.609 631.91C412.805 614.138 423.523 592.844 440.258 567.094C443.539 562.032 446.383 557.905 446.602 557.905C446.766 557.905 447.75 560.051 448.789 562.747C455.57 580.134 465.797 598.347 475.094 609.351C484.773 620.796 496.969 629.985 510.476 635.982C515.289 638.073 547.336 648.637 557.945 651.609C579.547 657.661 600.219 660.357 639.43 662.173C649.383 662.613 662.781 663.383 669.234 663.879C682.25 664.869 694.5 664.649 699.094 663.383C702.867 662.338 707.297 659.862 708.937 657.881C712.711 653.369 714.789 645.886 715.445 634.551C716.43 617.88 712.383 614.248 690.562 612.377C683.18 611.772 638.883 605.94 621.383 603.299C588.351 598.347 557.836 591.249 545.258 585.636C533.172 580.299 514.414 545.085 496.805 494.684L494.016 486.651L493.961 474.271C493.906 460.515 493.359 457.654 489.805 451.986C487.836 448.85 487.344 448.41 485.539 448.41C483.516 448.41 472.141 445.714 467.492 444.173C458.086 441.037 443.758 432.508 428.117 420.734C406.68 404.667 396.672 390.086 385.844 359.328C385.133 357.347 384.367 355.697 384.039 355.642C383.766 355.587 380.758 356.082 377.367 356.797Z" fill="#A72F3B"/>
<path d="M847.625 519.224C844.617 524.341 837.945 535.786 832.75 544.7C827.555 553.613 813.664 577.273 801.852 597.246C776.367 640.329 765.375 659.147 753.727 679.395C747.492 690.344 744.594 694.801 743.172 695.902L741.258 697.387L637.953 697.552L534.703 697.662V713.894V730.126H647.086C770.461 730.126 761.383 730.401 764.719 726.769C765.648 725.724 775.492 709.052 786.539 689.684C797.641 670.316 822.688 626.463 842.32 592.294C882.406 522.36 882.078 522.911 881.203 522.195C879.836 521.095 875.242 519.059 867.859 516.253C863.539 514.657 858.563 512.566 856.758 511.686C855.008 510.751 853.477 510.035 853.313 510.035C853.148 510.035 850.633 514.162 847.625 519.224Z" fill="#A72F3B"/>
<path d="M466.562 741.185C465.578 742.286 465.523 743.551 465.359 761.159C465.25 771.448 465.359 781.957 465.523 784.433L465.906 789H679.953H894V764.515V740.03H680.828H467.602L466.562 741.185Z" fill="#A72F3B"/>
<path d="M451.414 20.4178C448.242 20.8144 447.053 22.7176 446.418 28.1896C446.022 31.9961 445.943 32.0754 442.85 32.7098C440.789 33.1857 439.124 33.1064 437.934 32.4719C435.793 31.2824 421.124 33.7408 420.569 35.3269C420.331 35.882 419.38 36.5957 418.428 36.8336C417.477 37.0715 415.336 38.5783 413.591 40.1643L410.578 43.0193L411.45 47.5395C411.926 49.9979 413.036 54.9147 413.829 58.4834C414.622 61.9727 415.018 65.3035 414.701 65.8586C414.384 66.4137 412.481 66.9688 410.499 67.2067L406.931 67.6033L404.631 63.083C400.667 55.1527 400.111 54.201 397.495 52.0598L394.957 49.9186L393.689 52.615C393.054 54.0424 392.579 56.5008 392.658 58.0076C392.896 60.7039 392.896 60.7039 387.345 62.5279C384.332 63.4795 380.526 64.5104 378.94 64.7483L376.006 65.2242L372.835 55.0734C371.09 49.4428 368.632 41.6711 367.443 37.7852C365.936 32.7891 364.826 30.648 363.875 30.4101C363.082 30.1721 362.209 29.2998 361.972 28.5068C361.575 27.2379 360.941 27.0793 358.721 27.4758C356.342 27.9517 355.945 27.7137 355.232 25.8105C354.518 23.8279 354.122 23.6693 351.584 24.0658C346.747 24.8588 342.941 27.1586 342.783 29.3791C342.783 30.4894 342.703 31.7582 342.624 32.3133C342.545 32.7891 341.831 33.5029 340.959 33.7408C340.008 34.058 339.373 34.9303 339.373 36.0406C339.373 36.9922 338.977 38.1818 338.58 38.5783C337.946 39.2127 339.215 43.3365 342.545 52.2977C345.162 59.3557 347.302 65.7793 347.302 66.5723C347.302 67.3653 347.857 69.3479 348.492 70.8547C349.523 73.3924 349.523 73.7889 348.413 74.8992C345.399 77.9127 342.228 74.6612 338.263 64.5897C335.012 56.1836 333.902 54.7561 330.651 54.7561C328.114 54.7561 324.07 58.7213 324.704 60.5453C325.1 61.3383 324.466 62.2106 322.96 63.1623C321.77 63.9553 320.66 64.669 320.501 64.7483C320.343 64.8276 320.819 66.1758 321.453 67.7619C322.722 70.6961 321.929 72.2821 320.026 70.6961C318.598 69.5065 315.347 70.7754 311.938 73.7096C310.511 74.9785 308.608 76.2473 307.735 76.5645C306.308 77.0403 306.149 77.5162 306.546 80.3711C306.863 82.195 307.418 84.3362 307.735 85.05C309.718 88.9358 309.956 90.3633 308.766 91.6321C306.467 93.9319 304.802 93.0596 302.185 88.0635C299.885 83.7811 299.41 83.3053 297.11 83.3053C293.621 83.3053 290.132 86.7153 290.767 89.6496C291.005 91.2356 290.767 92.108 289.657 92.901C288.864 93.5354 287.833 94.725 287.357 95.5973C285.375 99.0866 283.789 97.5006 276.415 84.3362C268.485 70.141 263.886 64.2725 260.635 64.2725C257.622 64.2725 257.464 66.2551 260.08 71.4891C262.221 75.6922 262.38 76.2473 261.19 76.7231C260.239 77.0403 259.208 76.4852 258.019 74.9785C256.036 72.4408 254.688 72.6787 256.116 75.2957C256.591 76.2473 257.147 80.1332 257.305 84.019C257.543 89.9668 257.939 91.6321 259.684 94.4077C262.063 98.135 261.825 98.7694 257.147 101.624C254.688 103.131 254.133 103.21 252.31 102.259C251.12 101.704 249.614 100.514 248.9 99.6418C247.552 98.135 245.332 98.5315 246.363 100.197C246.68 100.673 246.997 102.655 247.076 104.479C247.314 107.731 247.156 107.969 243.032 110.665C238.196 113.916 235.737 113.837 233.121 110.427C231.931 108.92 231.218 108.682 230.583 109.317C229.949 109.951 230.028 110.665 230.901 112.013C231.614 113.123 231.931 115.106 231.773 117.009C231.456 119.864 231.694 120.34 233.834 121.529C235.103 122.243 236.768 123.829 237.561 125.098C238.354 126.288 240.892 129.856 243.191 132.949C245.49 136.042 247.394 138.897 247.394 139.452C247.394 140.959 246.046 141.197 243.667 140.007C241.764 139.055 240.971 139.055 238.354 139.928C236.689 140.483 234.945 141.593 234.548 142.307C233.438 144.289 231.773 143.814 228.443 140.404C225.429 137.311 225.271 137.231 223.13 138.342C221.861 138.976 220.196 139.69 219.482 139.928C217.579 140.483 215.201 145.796 216.39 146.986C218.452 149.048 217.659 149.761 210.602 152.299C208.461 153.092 208.381 153.251 209.65 154.599C211.236 156.344 211.315 157.85 209.729 157.85C209.095 157.85 207.826 158.247 207.033 158.802C205.527 159.754 205.527 159.754 207.033 161.736L208.619 163.719L206.003 166.019C204.575 167.208 202.355 169.191 201.166 170.301L198.866 172.363L194.822 168.08C192.523 165.781 190.778 163.56 190.858 163.243C191.016 162.846 190.541 162.609 189.906 162.609C189.272 162.609 188.003 162.212 187.131 161.657C185.942 160.864 185.387 160.943 184.197 162.053C183.404 162.767 180.55 164.274 178.012 165.384C172.541 167.763 168.101 171.728 168.101 174.028C168.101 175.059 166.991 176.407 165.167 177.597L162.233 179.5L168.418 185.369C174.92 191.713 175.634 193.616 171.669 194.409C170.321 194.726 169.766 194.964 170.321 195.044C172.145 195.202 171.272 197.264 168.18 199.722C166.436 201.15 164.691 202.26 164.374 202.26C163.978 202.26 163.264 202.974 162.709 203.846C162.154 204.719 161.282 205.432 160.726 205.432C160.171 205.432 159.379 206.225 158.982 207.177C157.793 209.873 155.89 209.794 152.718 206.86C147.802 202.339 144.789 199.802 143.282 199.009C142.568 198.533 141.934 197.661 141.934 197.105C141.934 195.916 140.983 195.519 140.11 196.392C139.872 196.709 141.141 198.136 142.965 199.643C144.789 201.15 147.167 203.291 148.278 204.322C149.388 205.274 151.37 207.018 152.639 208.129C154.621 209.794 154.859 210.349 154.145 211.539C153.59 212.332 152.48 212.966 151.608 212.887C150.656 212.887 150.181 213.283 150.418 213.838C150.894 215.107 147.088 217.645 145.582 217.09C144.789 216.773 144.551 217.328 144.63 219.072C144.709 221.689 142.093 224.306 141.379 222.245C141.141 221.769 140.586 221.293 140.11 221.293C139.238 221.293 136.384 219.072 132.26 215.424C131.467 214.711 130.516 214.156 130.119 214.156C129.723 214.156 128.534 213.125 127.424 211.856C125.6 209.715 125.362 209.556 123.776 210.666C122.904 211.301 122.111 212.332 122.111 212.887C122.111 213.521 121.556 214.394 120.922 214.949C119.811 215.9 119.811 216.138 121.001 217.407C121.794 218.279 122.904 218.914 123.617 218.914C124.569 218.914 124.331 218.438 122.904 217.407C121.001 215.9 121.001 215.821 122.428 214.235C123.3 213.283 124.41 212.57 124.965 212.57C125.996 212.57 130.437 215.345 132.736 217.407C133.37 218.041 135.591 219.786 137.573 221.293C141.538 224.386 141.855 225.179 139.555 227.241C137.969 228.668 137.89 228.589 134.401 226.13C132.419 224.703 130.992 224.068 131.23 224.624C131.467 225.179 132.736 226.289 134.005 227.003C136.621 228.509 137.018 230.333 135.115 232.475C134.005 233.743 134.243 234.061 138.366 236.836C143.123 240.167 144.234 242.467 142.806 245.639C142.093 247.225 141.538 247.542 139.872 247.146C137.494 246.511 134.798 248.415 134.798 250.714C134.798 251.507 134.243 252.697 133.529 253.331C132.815 254.045 132.181 255.552 132.023 256.662C131.705 259.596 129.247 261.738 125.6 262.055C123.062 262.293 121.159 261.658 115.054 258.407C110.296 255.869 107.362 254.759 106.887 255.235C106.014 256.107 112.675 260.151 115.054 260.151C117.036 260.151 122.111 263.244 122.111 264.513C122.111 266.813 120.208 266.496 113.706 262.927C109.979 260.944 106.649 259.517 106.173 259.755C104.825 260.627 106.332 261.817 112.834 264.83C120.922 268.558 121.873 269.509 120.208 272.602C119.494 273.792 118.226 275.695 117.353 276.805C115.847 278.708 115.767 279.026 116.957 281.325C117.591 282.674 119.574 284.656 121.318 285.846C124.728 288.066 125.203 289.732 123.221 292.507C121.714 294.648 119.256 294.728 118.146 292.666C116.878 290.207 115.292 290.762 113.309 294.252C112.279 295.997 110.931 297.424 110.217 297.424C109.424 297.424 105.697 295.997 101.891 294.252C98.0852 292.428 94.8342 291.159 94.6756 291.318C94.517 291.476 97.6094 293.3 101.495 295.362C109.265 299.407 110.138 300.913 107.204 304.561L105.777 306.306L96.3407 302.499C91.1074 300.437 85.9534 297.979 84.8433 297.107C83.7332 296.155 81.2751 294.728 79.3721 293.935C76.5175 292.586 75.8832 292.507 75.2489 293.538C73.9009 295.679 74.5352 296.71 78.7377 298.534C81.513 299.724 83.3367 300.12 84.2089 299.724C85.7948 298.851 103.636 306.94 104.349 308.844C104.587 309.478 103.953 311.619 102.922 313.443C101.415 316.14 100.623 316.853 99.0367 316.695C97.3716 316.536 97.2923 316.615 98.4817 317.329C101.733 319.153 99.0367 322.642 95.6271 321.136C93.8034 320.263 93.4069 320.343 92.4554 321.611C91.4246 323.039 91.3453 323.039 89.1251 321.532C87.8564 320.739 85.7948 319.629 84.6054 319.074C82.7817 318.281 82.3059 318.281 81.9095 319.232C81.6716 319.946 82.3059 321.056 83.3367 321.849C84.5261 322.88 84.8433 323.673 84.3675 324.466C84.0504 325.101 83.8125 326.37 83.9711 327.321C84.0504 328.59 83.7332 329.145 82.861 329.145C80.9579 329.145 80.4029 331.604 81.9888 332.793C83.8125 334.062 83.3367 336.362 80.9579 337.551C79.7686 338.186 78.3413 340.327 76.9933 343.499C75.4074 347.306 74.4559 348.654 73.0287 348.971C71.0463 349.447 69.6984 351.35 71.2842 351.35C71.76 351.35 72.8701 352.064 73.7423 352.936C75.011 354.205 75.1696 354.919 74.5352 356.108C73.9009 357.298 73.1873 357.536 71.3635 357.139C68.0332 356.505 68.1918 358.646 71.6014 360.153C73.9802 361.184 74.1388 361.501 73.9009 364.832C73.7423 366.814 73.108 370.383 72.4736 372.762C71.8393 375.141 71.3635 378.234 71.3635 379.741C71.3635 383.071 70.0948 385.451 68.3504 385.451C67.0817 385.53 67.0817 385.53 68.4297 386.323C70.0948 387.275 70.1741 389.654 68.5883 391.002C67.716 391.715 67.6368 392.35 68.1918 393.381C69.2226 395.205 69.2226 398.694 68.2711 399.249C67.8746 399.487 67.716 400.439 67.9539 401.311C68.4297 403.214 67.716 403.294 62.0863 401.787C56.7736 400.36 55.9807 399.884 57.0908 398.536C58.0423 397.425 56.06 395.839 51.6196 394.332C47.8136 392.984 47.5757 393.064 47.5757 396.156C47.5757 398.853 47.655 398.853 52.9676 400.439C55.9014 401.311 59.7868 402.421 61.6898 402.897C65.4166 403.849 66.6852 405.594 64.9408 407.259C63.9893 408.052 62.4034 407.893 55.5843 406.387C47.5757 404.563 47.0999 404.483 43.6903 405.831C41.6287 406.545 39.4878 407.576 38.8535 408.052C38.2191 408.607 36.3161 409.559 34.651 410.114C31.1621 411.303 28.9419 414.476 28.2282 419.154C27.7525 421.93 27.9111 422.644 29.6555 424.23C30.7656 425.261 32.8272 426.292 34.2545 426.609C36.7919 427.164 36.8712 427.323 36.7919 430.971C36.7919 433.508 36.3161 435.174 35.5232 435.729C33.858 436.918 32.1929 448.021 32.8272 453.096C33.6201 458.489 36.9504 465.547 38.7742 465.547C41.153 465.547 56.5358 467.133 58.5181 467.529C60.0246 467.926 60.2625 468.481 60.2625 471.415C60.2625 473.318 59.7868 475.222 59.311 475.618C58.756 476.094 55.2671 476.887 51.5403 477.442C46.862 478.077 43.9282 479.028 41.8666 480.376L38.9328 482.359L41.153 484.262C42.4216 485.293 44.0075 486.166 44.6418 486.166C48.1307 486.166 48.3686 486.8 48.3686 495.206C48.3686 500.282 48.0514 503.612 47.4171 504.247C46.7827 504.881 41.7873 504.96 29.1797 504.643C13.9555 504.247 11.7353 504.326 10.8631 505.436C10.3874 506.071 9.19796 506.784 8.32574 506.943C7.29494 507.102 6.5813 507.974 6.34342 509.56C6.02625 511.384 5.4712 512.018 3.96464 512.177C0.792928 512.653 0 513.842 0 518.204C0 523.042 1.58586 525.817 4.4404 525.817C5.94696 525.817 6.50201 526.293 6.81918 528.196C7.13635 529.465 7.77069 530.575 8.32574 530.575C8.88079 530.575 9.83231 531.131 10.3874 531.844C11.3389 533.034 12.9247 533.113 23.4707 532.717C30.052 532.399 38.3777 532.399 41.9459 532.717C48.21 533.192 48.3686 533.272 48.3686 535.254C48.2893 538.982 45.5934 540.012 34.8888 540.647L25.2151 541.123L23.9464 543.819C22.757 546.357 22.757 546.674 24.105 549.212C24.9772 550.718 26.3252 551.987 27.2767 552.146C28.3868 552.304 29.0212 553.098 29.3383 554.763C29.7348 556.904 30.052 557.142 32.9065 557.38C36.7919 557.697 38.3777 558.966 35.7611 559.68C34.0959 560.076 34.0166 560.473 34.4131 563.328C34.7302 565.152 35.2853 566.976 35.6818 567.451C36.0782 567.927 36.6333 569.751 36.9504 571.575C37.3469 574.43 37.7434 574.906 39.9636 575.302C41.3115 575.54 44.4833 575.778 46.9413 575.778C51.1439 575.699 51.5403 575.858 52.0161 577.682C52.6504 580.457 52.0161 581.092 48.1307 581.726C40.6772 582.836 40.5979 582.836 40.2014 585.533C39.7257 589.101 41.7873 593.225 44.1661 593.225C45.5934 593.225 46.307 593.859 46.862 595.525C47.3378 596.794 48.21 598.062 48.8444 598.3C50.113 598.776 50.3509 601.631 49.2408 602.345C48.7651 602.583 42.8181 603.852 35.9196 605.2C19.4267 608.293 12.3697 610.83 11.0217 614.002C10.2288 615.985 10.2288 616.461 11.1803 617.095C12.2111 617.809 13.3212 617.73 20.0611 616.54C22.757 616.064 23.1535 616.223 22.8363 617.412C22.5984 618.84 21.6469 619.554 18.6338 620.664C17.4444 621.06 18.1581 621.378 21.4091 621.853C23.7878 622.171 27.8318 623.202 30.2898 623.995C34.0166 625.263 35.4439 625.343 38.7742 624.629C43.611 623.677 44.2454 624.074 45.2762 628.991C46.0691 632.321 45.9898 632.559 43.611 634.701C42.3424 635.89 40.6772 636.842 39.9636 636.842C39.2499 636.842 38.8535 637.318 39.0913 637.793C39.2499 638.348 40.36 638.745 41.4701 638.586C42.5802 638.507 43.6903 638.745 44.0075 639.221C44.2454 639.617 45.1969 640.014 46.0691 640.014C47.655 640.014 48.21 641.045 49.9545 646.913C50.8267 649.768 50.8267 650.561 49.6373 652.227C48.9237 653.337 47.4964 654.447 46.3863 654.764C45.2762 655.002 44.404 655.795 44.404 656.43C44.404 657.381 44.959 657.54 46.862 657.143C48.2893 656.905 49.7959 656.985 50.2716 657.381C52.254 658.888 55.1085 658.967 56.6943 657.54C57.5666 656.747 62.2448 654.844 67.0817 653.257C79.0549 649.292 81.4337 649.451 77.6276 653.892C75.566 656.192 75.1696 661.188 76.7554 663.17C78.4206 665.232 77.4691 666.66 73.0287 668.722C69.6191 670.228 69.064 670.783 69.5398 672.132C69.7777 673.004 70.0155 674.669 69.9362 675.78C69.6984 678.714 73.1873 682.362 75.8039 681.807C78.1827 681.41 79.2928 683.472 79.2928 688.468C79.2928 691.323 79.4514 691.561 80.7994 690.768C83.416 689.42 84.0504 689.896 84.0504 693.226C84.0504 696.636 84.1297 696.636 88.5701 694.971C89.1251 694.733 89.918 695.605 90.3938 696.795C91.3453 699.333 92.614 702.346 93.6448 704.408C94.0413 705.201 94.3584 705.994 94.3584 706.232C94.3584 706.946 87.9357 709.88 87.3014 709.404C86.9049 709.246 86.4291 709.563 86.112 710.197C85.8741 710.832 85.1605 711.387 84.5261 711.387C83.8918 711.387 82.3852 712.259 81.2751 713.449C79.7686 714.955 79.4514 715.748 80.0064 716.859C80.4822 717.652 81.1165 720.982 81.5923 724.313C82.3059 730.578 84.2882 734.781 87.1428 736.526C88.015 737.081 88.9665 738.746 89.2837 740.332C89.5216 741.839 89.9973 743.108 90.1559 743.108C90.3938 743.108 93.5655 741.522 97.2923 739.539C100.94 737.557 104.349 735.971 104.904 735.971C106.807 735.971 107.838 737.636 106.966 739.301C106.252 740.65 106.332 740.808 107.759 740.332C108.948 739.936 109.583 740.253 109.9 741.284C110.138 742.077 110.772 743.584 111.327 744.694C111.882 745.804 112.834 748.263 113.389 750.245C113.944 752.228 114.975 754.448 115.609 755.162C117.274 757.145 116.481 759.207 113.309 760.713C110.534 761.982 107.759 764.52 109.107 764.52C109.503 764.52 111.406 763.41 113.309 762.141C116.085 760.238 117.036 759.92 117.908 760.713C118.543 761.189 118.939 762.458 118.701 763.41C118.543 764.441 118.939 765.472 119.891 766.027C121.556 767.058 121.794 770.071 120.366 771.578C119.494 772.371 119.732 772.45 121.477 772.054C123.3 771.578 123.776 771.816 124.569 773.56C125.441 775.384 125.362 775.781 124.014 776.891C122.349 778.16 117.036 781.887 115.054 783.156C114.34 783.553 112.754 784.742 111.565 785.773C110.296 786.725 108.948 787.359 108.552 787.042C106.887 786.011 108.076 790.531 110.058 792.831L112.279 795.448L115.054 792.99C117.274 791.007 117.353 790.769 115.609 791.8C112.516 793.624 111.089 793.386 110.217 791.007C109.345 788.787 110.296 786.725 112.199 786.725C112.675 786.725 113.785 786.011 114.578 785.139C115.371 784.266 116.323 783.553 116.64 783.553C116.957 783.553 118.226 782.68 119.415 781.57C120.604 780.46 121.952 779.587 122.507 779.587C123.062 779.587 123.935 779.032 124.49 778.398C125.838 776.733 126.631 776.891 128.137 779.191C129.406 781.094 129.406 781.332 128.058 782.76C127.265 783.632 126.155 784.346 125.679 784.346C125.124 784.346 124.49 784.901 124.173 785.535C123.538 787.201 124.807 787.042 126.472 785.139C128.375 783.077 130.357 783.156 131.785 785.297L132.974 787.042L137.732 783.632C141.458 781.015 142.965 780.381 144.551 780.777C147.722 781.649 148.753 783.235 147.485 785.535C146.216 787.914 147.485 791.404 149.863 792.038C150.736 792.276 151.608 793.069 151.846 793.941C152.084 794.734 153.035 795.607 153.907 795.845C156.603 796.717 158.031 799.731 157.396 803.537C156.92 806.392 155.89 807.74 150.498 812.816C146.216 816.86 144.551 819.001 145.106 819.556C145.978 820.429 152.242 814.877 152.242 813.212C152.242 811.943 157.713 807.185 158.823 807.582C161.044 808.295 159.934 810.278 154.7 815.115C149.467 820.111 147.881 822.411 149.943 822.411C150.418 822.411 153.273 819.715 156.445 816.463C159.537 813.212 162.63 810.516 163.422 810.516C164.136 810.516 166.039 812.26 167.546 814.322C170.083 817.891 170.559 818.129 172.938 817.812C174.365 817.574 176.982 816.384 178.647 815.195C181.581 813.133 181.898 813.053 183.959 814.084C187.29 815.829 187.527 820.032 184.276 820.032C183.801 820.032 182.928 820.508 182.453 821.142C181.66 822.015 181.977 822.808 183.959 825.028C185.228 826.535 186.338 828.28 186.338 828.835C186.338 829.469 183.801 832.721 180.708 836.051C177.616 839.461 175.316 842.237 175.634 842.237C175.951 842.237 178.805 839.699 182.056 836.527L187.924 830.817L190.144 832.483C191.334 833.355 192.285 834.862 192.285 835.734C192.285 837.637 180.55 852.309 178.409 852.943C177.616 853.181 175.634 855.005 174.048 856.987C171.669 859.842 171.272 860.715 172.065 861.666C173.572 863.49 174.603 863.094 177.774 859.287C179.757 857.067 180.629 855.401 180.312 854.529C179.915 853.577 181.818 851.119 187.21 845.726C191.254 841.603 194.981 838.272 195.377 838.272C195.853 838.272 197.518 839.541 199.184 841.206C201.642 843.585 201.959 844.299 201.324 845.568C200.611 846.916 200.69 846.995 201.959 846.361C205.051 844.775 206.558 847.471 204.1 850.247C203.069 851.357 203.069 851.991 203.782 853.339C204.655 854.926 204.338 855.401 200.849 858.494C197.836 861.191 197.28 862.142 197.994 862.935C198.708 863.649 199.421 863.57 201.087 862.459C202.831 861.349 203.307 861.27 203.862 862.142C204.258 862.777 204.972 863.332 205.527 863.332C206.082 863.411 207.033 863.49 207.589 863.57C208.302 863.649 208.461 864.204 208.144 865.235C207.509 867.138 209.333 868.09 211.474 866.98C213.536 865.79 215.676 867.218 215.756 869.835C215.756 871.421 216.787 872.769 220.117 875.386C223.685 878.241 224.319 879.113 223.923 880.62C223.289 883.157 224.636 883.792 226.381 881.889C228.046 880.065 229.077 879.906 231.059 881.334C232.486 882.364 232.486 882.523 231.218 884.426C229.235 887.44 231.218 888.392 233.597 885.616C234.627 884.426 235.737 883.475 236.134 883.475C237.006 883.475 243.905 887.043 246.997 889.026C248.345 889.898 249.931 890.771 250.565 891.088C256.433 893.388 257.067 893.863 256.671 895.846C256.433 897.273 256.591 897.591 257.147 897.036C258.574 895.608 261.746 896.005 262.221 897.591C262.459 898.701 263.173 898.939 265.234 898.701C267.058 898.463 268.327 898.86 269.358 899.89C270.23 900.763 271.261 901.318 271.736 901.159C273.877 900.446 273.402 902.825 270.706 907.266C267.692 912.262 266.9 912.738 265.869 910.914C265.314 909.962 264.997 909.962 263.649 911.072C262.776 911.865 261.19 913.61 260.16 915.117C258.257 917.734 258.257 917.813 259.684 918.844C262.538 920.906 263.728 920.113 268.723 912.42C273.56 904.966 274.908 903.856 276.653 905.997C277.366 906.869 276.653 908.614 273.164 914.324C268.327 922.413 268.01 924.316 269.754 934.149C270.864 940.573 272.133 942.556 276.177 944.617C278.793 945.966 279.666 946.124 281.569 945.331C282.837 944.776 284.582 943.111 285.533 941.683C286.406 940.177 287.516 938.987 287.912 938.987C289.657 938.987 294.969 942.318 294.969 943.349C294.969 943.983 297.744 945.966 301.471 947.79C308.37 951.279 312.651 952.072 319.709 951.2L323.356 950.724L327.479 941.128C329.779 935.815 332.078 930.977 332.633 930.422C333.426 929.55 334.14 929.629 336.677 930.819C339.294 932.088 339.77 932.643 339.611 934.625C339.532 936.925 338.739 944.459 338.422 946.917C338.184 948.345 339.373 954.055 339.928 954.055C341.435 954.055 345.162 951.2 346.113 949.296C346.827 947.948 347.62 946.917 348.016 946.917C349.602 946.917 363.478 952.31 363.716 953.024C363.875 953.42 361.417 961.271 358.324 970.312C353.963 983.08 352.853 987.203 353.487 988.234C353.963 988.948 354.201 990.217 353.963 991.01C353.725 992.041 354.28 992.913 356.025 993.865C358.007 994.975 358.324 995.53 357.928 997.513C357.531 999.575 357.769 999.892 360.544 1001.08C362.289 1001.72 364.985 1002.59 366.571 1002.83C369.187 1003.3 369.584 1003.14 370.377 1001.32C371.09 999.813 371.963 999.257 373.548 999.257C374.817 999.257 376.72 998.385 378.068 997.037C380.05 995.292 381.002 992.913 383.698 983C385.522 976.418 387.742 969.677 388.535 967.853C389.407 966.109 390.121 964.047 390.121 963.333C390.121 961.509 391.944 960.875 393.927 961.906C396.543 963.333 396.623 967.219 394.164 976.815L391.865 985.697L393.768 987.441C396.305 989.82 400.984 989.82 402.807 987.362C403.759 986.093 404.79 985.697 406.455 985.934C408.437 986.172 408.834 985.855 409.547 983.555C410.816 979.67 412.164 978.797 412.798 981.335C413.036 982.445 413.908 983.476 414.622 983.476C415.336 983.555 418.587 983.714 421.917 983.793L428.023 983.952L429.608 980.7C430.481 978.876 431.432 976.101 431.67 974.435C432.225 971.581 432.384 971.422 434.762 971.66C437.141 971.898 437.3 972.056 437.22 975.07C437.22 976.815 437.062 979.432 436.824 980.938C436.586 983.317 436.824 983.793 439.044 984.983C442.454 986.807 446.339 986.172 447.211 983.714C447.766 982.287 448.559 981.811 450.304 981.811C451.572 981.811 452.92 981.414 453.158 981.018C453.396 980.542 454.506 980.225 455.616 980.225C457.916 980.225 457.916 979.67 455.934 995.768C453.951 1011.71 454.11 1017.81 456.647 1021.38L458.55 1024L459.898 1021.86C460.691 1020.67 461.484 1017.97 461.722 1015.75C462.277 1011.15 462.515 1010.76 464.259 1011.39C464.973 1011.71 465.449 1012.9 465.449 1014.72C465.449 1016.23 465.845 1017.5 466.242 1017.5C466.717 1017.5 467.035 1016.7 467.035 1015.67C467.035 1014.64 468.779 1011.23 470.92 1008.14C474.012 1003.7 474.964 1001.56 475.36 998.147C475.677 995.768 476.391 993.627 476.867 993.468C477.422 993.23 479.484 993.23 481.545 993.468C484.717 993.865 485.431 994.261 486.461 996.323C487.096 997.592 487.651 999.575 487.651 1000.61C487.651 1003.22 488.999 1002.91 489.633 1000.13C489.871 998.861 490.664 997.592 491.298 997.354C491.933 997.116 492.408 996.402 492.408 995.689C492.408 994.737 493.518 994.499 498.038 994.499C502.875 994.499 503.826 994.737 505.174 996.244C505.967 997.275 506.602 999.257 506.681 1000.68C506.681 1004.02 508.505 1003.78 508.901 1000.37C509.06 999.178 510.091 997.275 511.121 996.165C513.104 994.182 513.579 992.517 512.231 991.724C511.756 991.406 511.439 986.569 511.439 979.749C511.439 969.36 511.597 968.329 512.866 968.329C513.579 968.329 514.69 969.36 515.245 970.708C516.038 972.374 516.91 973.087 518.178 973.087C519.209 973.087 520.319 973.484 520.557 973.88C520.874 974.356 522.222 974.515 523.65 974.277C525.87 973.801 526.346 974.039 527.139 975.863C527.694 976.973 528.09 979.114 528.09 980.621C528.09 983.159 528.328 983.397 530.39 983.397C531.737 983.397 533.006 983.793 533.244 984.19C533.958 985.3 536.178 985.141 539.032 983.714C540.935 982.842 541.57 981.969 541.57 980.463C541.57 978.559 541.728 978.48 544.583 978.876C546.169 979.114 548.31 979.59 549.34 979.907C550.847 980.304 551.085 980.145 551.085 978.401C551.085 976.022 552.433 974.911 553.702 976.18C554.177 976.656 555.367 977.052 556.239 977.052C557.666 977.052 557.904 976.656 557.587 974.673C557.19 971.977 557.587 971.739 563.772 971.184C566.151 971.025 568.609 970.708 569.243 970.55C570.036 970.391 570.591 971.343 571.067 973.801C571.384 975.704 571.463 977.608 571.225 978.004C570.987 978.401 571.225 979.194 571.701 979.828C572.256 980.463 572.494 981.493 572.256 982.128C572.018 982.762 572.335 984.428 572.97 985.697C574.001 987.679 574.556 988.076 576.062 987.679C577.093 987.441 580.344 987.758 583.357 988.393C589.383 989.741 594.537 989.265 596.678 987.045C597.63 986.093 598.74 985.855 600.643 986.252C602.07 986.49 603.418 986.41 603.656 986.014C604.053 985.3 602.942 977.528 601.832 973.087C601.277 970.946 601.357 970.074 602.387 968.964C603.577 967.695 603.815 967.615 605.004 968.726C606.748 970.312 607.304 970.232 606.828 968.329C606.352 966.584 605.797 966.743 617.453 966.426C620.149 966.347 622.607 966.029 622.924 965.712C623.955 964.761 626.413 965.078 626.889 966.347C627.285 967.298 627.682 967.14 628.792 965.712C630.14 964.126 630.457 964.126 632.043 964.998C633.391 965.871 633.867 965.871 634.342 965.157C634.977 964.205 637.276 964.364 639.972 965.474C640.844 965.871 641.399 965.554 641.717 964.443C641.954 963.333 642.747 962.778 644.095 962.778C645.84 962.778 646.236 963.492 648.219 969.757C649.408 973.563 650.756 977.608 651.152 978.797C651.628 979.987 651.787 981.493 651.47 982.207C651.152 983.08 651.628 983.397 653.214 983.397C654.403 983.397 655.91 983 656.544 982.604C657.496 981.969 657.258 981.811 655.593 981.811C653.611 981.811 651.549 979.749 651.866 978.083C652.025 977.449 651.945 977.052 650.28 972.294C648.615 967.695 647.743 963.412 648.139 962.223C648.694 960.954 653.373 960.875 653.373 962.143C653.373 962.699 653.928 962.302 654.641 961.35C655.276 960.399 656.544 959.606 657.417 959.606C659.32 959.606 659.32 959.447 657.258 953.341C655.91 949.376 655.751 947.948 656.386 946.441C657.654 943.745 660.905 943.111 662.729 945.331C663.839 946.759 664.474 946.917 666.218 946.204C667.328 945.807 668.518 945.014 668.835 944.617C669.073 944.142 669.945 943.745 670.738 943.745C671.531 943.745 672.958 942.873 673.989 941.763C676.13 939.463 680.332 939.066 681.918 940.97C682.473 941.604 683.425 942.159 684.059 942.159C684.693 942.159 686.676 945.411 688.737 949.851C692.781 958.575 692.623 958.337 693.733 957.623C694.684 957.068 692.068 951.755 688.658 946.997C686.755 944.38 686.121 941.445 687.231 940.335C688.182 939.304 689.927 941.604 693.019 948.345C695.556 953.658 696.429 954.927 697.222 954.134C697.935 953.42 697.301 951.596 694.288 945.886C691.909 941.366 690.561 937.956 690.878 937.163C691.116 936.449 693.257 935.339 695.556 934.625C701.107 933.039 702.217 930.739 700.076 925.188C698.57 921.064 698.728 919.558 701.028 918.368C704.358 916.544 706.499 917.813 706.499 921.54C706.499 923.919 707.768 924.078 711.177 922.333C712.922 921.461 714.666 920.747 715.142 920.747C715.538 920.747 717.838 924.316 720.375 928.678C722.833 933.039 724.974 936.608 725.133 936.608C725.291 936.608 723.864 933.356 721.961 929.312C719.979 925.347 718.393 921.461 718.393 920.747C718.393 920.033 719.661 918.844 721.168 918.13L723.864 916.861L725.767 919.399C729.89 924.871 735.837 934.863 735.837 936.211C735.837 938.035 739.96 945.331 740.991 945.331C741.467 945.331 742.339 944.935 742.974 944.538C744.004 943.904 743.846 943.19 741.943 939.463C740.436 936.687 739.088 935.022 738.057 934.863C736.868 934.705 735.124 932.088 731.793 925.902C729.256 921.064 727.115 916.623 727.115 915.91C727.115 914.482 734.41 910.755 735.679 911.548C736.075 911.786 736.63 911.31 736.868 910.438C737.423 908.297 739.405 908.455 740.991 910.596C741.705 911.707 743.053 912.42 744.242 912.42C745.907 912.42 746.462 912.976 747.335 915.513C748.683 919.399 750.586 921.382 751.775 920.192C752.409 919.558 752.409 918.844 751.696 917.654C750.982 916.306 751.061 915.91 752.092 915.434C752.806 915.196 753.678 914.244 754.074 913.293C754.471 912.103 755.343 911.627 756.929 911.627C758.832 911.627 759.229 911.31 759.229 909.645C759.229 906.552 760.259 905.521 762.797 906.076C764.541 906.473 766.048 905.918 769.616 903.618C773.343 901.239 774.453 900.842 775.642 901.635C778.576 903.459 779.686 901.794 777.704 898.622C776.99 897.432 776.99 896.798 777.783 895.846C779.29 894.101 781.272 894.26 782.461 896.243C783.254 897.432 783.809 897.67 784.444 897.036C784.999 896.48 784.84 895.449 783.73 893.388L782.303 890.612L790.787 882.127C798.003 874.989 799.589 873.8 800.699 874.513C801.888 875.227 802.126 874.989 802.047 873.245C802.047 871.817 802.602 870.945 803.87 870.39C804.901 869.914 805.932 868.645 806.17 867.455C806.646 864.838 808.311 863.332 809.897 863.887C810.69 864.204 810.848 863.887 810.61 862.777C809.817 860.001 812.513 861.191 815.844 865.156C819.253 869.2 819.808 870.786 817.984 870.786C816.24 870.786 817.747 875.306 820.363 878.082C822.028 879.747 822.821 880.065 823.535 879.43C825.834 877.527 825.597 875.544 822.821 872.134C815.606 863.173 814.258 861.111 815.209 860.001C816.874 858.018 818.064 858.811 823.852 865.473C829.878 872.372 829.878 872.372 839.711 874.117C847.561 875.465 849.147 875.148 852.556 871.817C855.331 869.121 855.649 868.486 855.173 866.028C854.856 864.521 853.983 862.539 853.111 861.587C852.318 860.715 851.605 859.446 851.605 858.891C851.605 857.146 855.728 853.339 857.552 853.339C859.693 853.339 869.842 843.03 869.842 840.889C869.842 840.096 870.238 838.986 870.714 838.51C871.19 838.034 872.062 835.655 872.617 833.196L873.648 828.755L865.005 821.142C860.248 816.939 856.362 813.212 856.362 812.816C856.362 811.626 860.485 807.344 861.596 807.344C862.626 807.344 864.291 808.057 867.463 809.881C868.098 810.199 869.208 810.754 869.842 810.992C870.476 811.229 872.062 811.943 873.252 812.578C874.52 813.133 876.978 813.688 878.723 813.688C881.815 813.688 881.894 813.688 881.339 811.15C881.022 809.723 880.071 807.819 879.278 806.868C878.485 805.995 877.771 804.727 877.771 804.092C877.851 802.268 887.366 790.531 888.555 791.007C889.11 791.245 895.771 796.083 903.383 801.792C912.422 808.533 917.656 811.943 918.448 811.626C919.083 811.388 920.351 811.547 921.224 812.023C922.413 812.657 923.047 812.419 924.475 810.833C926.14 808.85 926.298 808.85 928.281 810.119C930.184 811.388 930.342 811.388 932.087 809.723C933.118 808.771 934.783 806.392 935.734 804.489L937.637 800.999L935.972 799.334C934.466 797.907 934.386 797.351 935.179 795.21C935.814 793.386 935.814 792.752 935.1 792.514C934.545 792.276 934.069 791.324 934.069 790.373C934.069 788.866 932.008 787.201 923.999 781.887C918.369 778.239 912.422 773.957 910.598 772.371C908.854 770.785 906.713 769.119 905.92 768.723C904.652 767.93 904.572 767.533 905.286 765.868C906.872 762.458 910.361 763.172 919.479 768.961C926.536 773.402 927.805 773.957 929.549 773.323C932.959 772.054 934.624 766.74 932.563 764.203C931.69 763.172 931.69 762.458 932.404 760.872C933.673 758.096 933.593 757.938 930.897 756.352C928.201 754.686 927.567 752.228 930.105 753.021C931.294 753.417 932.008 752.862 933.276 750.88C934.148 749.452 934.862 747.549 934.862 746.677C934.941 745.804 935.576 743.822 936.369 742.315L937.875 739.619L934.862 736.764C933.276 735.257 930.818 733.354 929.47 732.64C926.536 731.054 926.378 730.499 928.36 728.04L929.787 726.296L934.783 728.833L939.858 731.371L941.84 729.389C944.456 726.772 944.853 722.727 942.791 720.745C941.523 719.555 941.364 718.921 941.998 717.731C942.395 716.938 942.553 715.193 942.316 713.845C941.443 709.563 943.505 709.959 957.302 716.462C964.438 719.793 970.782 722.489 971.495 722.489C972.13 722.489 974.033 723.044 975.698 723.679C977.997 724.71 979.107 724.789 981.328 724.075C985.768 722.568 984.975 720.745 978.077 717.097C973.478 714.559 973.319 713.29 977.68 713.528C981.01 713.687 981.962 712.656 979.345 711.783C978.473 711.545 975.856 708.849 973.557 705.836C970.385 701.632 968.482 699.967 965.628 698.698C961.346 696.874 961.108 696.002 963.407 690.847L964.993 687.358L969.354 687.834C974.112 688.31 974.826 687.675 971.733 685.692C970.623 684.979 969.751 684.027 969.751 683.472C969.751 682.996 969.196 682.203 968.562 681.727C967.531 680.934 967.61 680.221 969.117 675.859C971.02 670.228 972.764 668.96 977.284 669.832C980.773 670.466 981.803 668.801 978.632 667.611C977.363 667.136 975.698 665.549 974.905 664.122C973.716 661.822 973.16 661.584 970.227 661.664C968.403 661.664 965.39 661.029 963.249 659.998C961.187 659.047 958.888 658.254 958.095 658.174C955.24 658.095 948.738 655.319 948.738 654.288C948.738 653.654 950.007 652.861 951.593 652.464C953.496 652.068 954.765 651.116 955.32 649.847C955.875 648.817 956.588 647.944 956.985 647.944C957.381 647.944 957.857 646.755 958.016 645.327C958.253 642.948 958.412 642.789 961.425 642.869C963.17 642.948 965.39 643.265 966.421 643.582C967.927 644.058 968.324 643.82 969.037 641.679C969.513 640.331 970.227 639.221 970.544 639.221C971.654 639.221 972.209 636.683 971.654 633.907C971.337 632.004 970.544 630.973 969.275 630.497C966.896 629.546 966.896 629.229 969.672 625.026C972.05 621.457 972.209 620.188 970.147 620.188C968.165 620.188 968.006 618.681 969.672 616.302L971.337 614.002L968.562 613.051C965.866 612.178 965.231 611.465 966.341 610.354C966.658 610.117 966.976 609.006 967.134 608.055C967.293 607.103 967.61 605.438 967.927 604.327C968.165 603.217 968.324 601.71 968.244 600.838C968.086 599.569 968.403 599.49 971.495 599.966C973.398 600.283 975.301 600.838 975.777 601.235C976.253 601.631 977.284 601.79 977.997 601.472C978.711 601.235 979.742 601.314 980.297 601.79C981.645 602.821 986.402 602.028 986.402 600.679C986.402 600.124 987.75 597.032 989.416 593.859C992.825 587.515 994.094 581.805 992.667 580.061C992.032 579.268 992.032 578.316 992.667 576.492C993.697 573.558 993.777 571.575 992.984 572.051C992.587 572.289 990.367 572.13 987.988 571.654C985.609 571.258 982.358 570.782 980.852 570.624C979.345 570.465 977.68 569.672 977.125 568.879C976.174 567.689 976.332 567.293 977.759 566.183C979.425 564.914 979.425 564.914 977.839 564.517C976.411 564.121 976.332 563.803 977.204 560.473C977.68 558.49 978.394 556.587 978.711 556.27C979.028 555.952 979.266 554.684 979.266 553.494C979.266 552.304 979.663 551.036 980.059 550.798C980.535 550.56 980.614 549.45 980.376 548.498C980.138 547.388 980.376 546.198 981.09 545.564C981.803 544.85 982.041 543.423 981.803 541.836C981.566 540.092 981.803 539.219 982.596 538.902C983.389 538.585 983.627 537.713 983.469 536.523C983.231 535.334 983.706 534.065 984.737 533.034C986.165 531.606 986.244 531.289 985.213 530.893C984.579 530.575 984.024 529.465 984.024 528.196C984.024 526.214 984.341 525.976 987.592 525.579C989.495 525.262 992.191 525.262 993.459 525.5C994.728 525.817 995.918 525.579 996.235 525.103C996.79 524.31 991.556 523.835 986.561 524.231C984.182 524.39 983.469 522.09 985.054 519.394C985.847 517.887 986.006 516.935 985.451 516.618C985.054 516.38 984.817 515.27 984.975 514.318C985.372 512.574 985.134 512.494 979.425 512.177C974.35 511.939 973.319 511.622 971.971 510.036C969.989 507.577 970.385 504.881 972.685 504.564C974.984 504.247 975.777 501.233 974.508 498.061C974.033 496.792 973.795 495.444 974.033 494.968C974.271 494.572 973.874 493.224 973.16 491.875C970.465 487.117 975.222 482.042 983.231 481.09C992.904 479.98 994.332 479.663 994.332 478.553C994.332 477.204 988.94 477.759 985.292 479.504C982.121 481.011 976.094 481.011 976.094 479.504C976.094 477.839 976.729 477.601 983.31 476.649C991.953 475.301 992.746 475.142 992.746 474.191C992.746 473.239 989.019 473.477 980.059 474.984C975.46 475.777 974.826 475.777 973.874 474.508C973.319 473.715 972.923 471.495 973.002 469.353C973.319 464.119 971.416 462.375 965.548 462.375C960.553 462.375 959.205 461.264 959.601 457.458C959.839 454.92 959.919 454.841 963.249 455.079L966.738 455.396L966.421 450.717L966.183 446.117L974.112 444.373C981.724 442.628 981.803 442.628 976.887 443.025C974.033 443.183 970.544 443.58 969.196 443.818C966.896 444.214 966.5 444.056 965.786 442.073C963.963 437.394 964.518 436.918 975.698 434.143C981.328 432.715 986.244 431.764 986.64 432.002C986.957 432.239 989.653 432.002 992.429 431.446C997.028 430.574 997.583 430.257 997.345 428.75C997.107 427.243 996.631 427.085 992.746 427.243C989.416 427.402 988.068 427.798 986.957 429.147C985.847 430.495 983.548 431.208 975.698 432.636C970.306 433.588 965.469 434.143 964.914 433.825C964.438 433.508 963.725 431.526 963.328 429.385C962.694 426.133 962.773 425.34 963.963 424.468C965.231 423.595 965.231 423.516 963.963 423.516C963.17 423.516 962.377 422.961 962.139 422.327C961.504 420.74 963.17 418.758 965.073 418.758C965.945 418.758 966.579 418.044 966.738 416.934C966.976 415.427 967.61 415.11 971.971 414.555C976.015 414 976.887 413.603 976.887 412.334C976.887 411.224 976.332 410.828 974.508 410.828C972.843 410.828 972.13 410.431 972.13 409.559C972.13 408.845 971.495 407.735 970.782 407.18C969.513 406.307 969.513 405.911 970.385 404.404C971.575 402.58 971.02 401.628 968.562 401.153C966.738 400.835 966.024 397.822 967.372 396.156C968.006 395.363 967.927 394.095 967.055 390.922C965.469 385.609 965.469 383.864 967.134 382.675C968.958 381.327 967.689 379.661 965.231 380.296C962.932 380.851 961.029 379.582 961.029 377.441C961.029 376.489 961.822 375.776 963.011 375.458C964.121 375.22 964.993 374.427 964.993 373.793C964.993 372.841 964.28 372.683 961.504 373.079L958.016 373.634L956.033 369.431C952.227 361.58 950.562 358.091 949.135 355.395C947.39 352.222 947.708 351.112 950.562 350.002C952.703 349.13 952.703 349.13 950.166 349.526C947.152 350.002 944.932 348.575 945.567 346.671C945.804 345.799 945.17 344.689 943.584 343.578C942.316 342.547 941.205 341.12 941.205 340.248C941.205 339.455 940.888 338.503 940.413 338.265C938.668 337.155 939.858 335.727 943.822 334.062C948.738 332 951.117 331.762 950.403 333.507C949.769 335.172 954.21 335.014 958.174 333.269L961.267 331.842L959.364 329.78L957.461 327.638L949.135 330.731C944.536 332.476 940.333 333.745 939.778 333.507C939.223 333.269 938.827 332.317 938.985 331.366C939.144 330.018 940.888 328.907 947.073 326.211C955.478 322.563 956.271 321.929 958.808 316.457C959.681 314.474 961.108 311.936 961.901 310.747C963.725 308.209 963.804 304.799 962.139 300.596C960.474 296.393 957.698 295.679 950.959 297.82C949.531 298.296 948.897 297.9 947.549 295.759C946.597 294.173 946.042 292.269 946.28 291.08C946.756 288.383 940.016 275.616 937.479 274.505C936.448 274.03 935.655 273.316 935.655 272.919C935.655 272.523 933.752 271.175 931.373 269.985L927.091 267.844L917.418 273.554C908.378 278.867 907.585 279.184 906.317 277.995C905.524 277.281 904.493 275.695 903.938 274.505C903.066 272.364 903.304 272.047 908.299 266.813C913.374 261.579 914.087 260.469 915.356 256.345C915.911 254.68 915.673 254.6 912.343 254.6C910.361 254.6 908.537 254.917 908.299 255.393C906.951 257.534 904.652 255.869 900.449 249.842C897.991 246.353 896.009 243.101 896.009 242.467C896.009 241.912 902.59 236.836 910.678 231.206C921.541 223.513 925.347 220.5 925.347 219.231C925.347 218.359 925.743 217.248 926.298 216.693C927.012 215.98 926.933 215.345 926.14 213.759C925.188 211.935 925.268 211.539 926.853 209.873L928.677 207.97L926.298 204.481C922.413 198.85 921.303 198.136 918.29 199.326C916.07 200.119 915.594 200.119 914.96 198.929C914.405 197.978 913.374 197.661 910.916 197.898C908.061 198.057 906.158 199.247 897.515 206.146C891.965 210.508 886.811 214.394 886.018 214.711C885.145 214.949 883.48 216.059 882.291 217.09C881.022 218.121 879.595 218.914 878.961 218.914C877.216 218.914 876.185 216.852 876.661 214.314C877.058 212.411 878.881 210.349 884.59 205.67C890.537 200.833 892.044 199.167 892.044 197.581C891.965 193.775 888.079 190.761 884.511 191.633C883.005 192.03 881.974 191.713 880.626 190.444L878.802 188.699L876.344 190.761C873.727 192.982 871.666 192.823 872.934 190.523C873.807 189.016 870.397 184.02 868.494 184.02C867.86 184.02 866.274 182.91 865.005 181.562L862.706 179.104L859.296 180.769C857.393 181.721 855.014 183.307 853.983 184.417C851.922 186.558 850.098 186.955 848.592 185.448C846.926 183.782 847.561 182.196 851.287 178.311C854.935 174.742 855.014 174.504 853.983 172.125C852.873 169.349 847.957 166.732 846.53 168.16C845.341 169.349 843.2 169.111 842.089 167.763C841.614 167.129 840.424 166.732 839.552 166.812C838.68 166.891 837.57 166.415 837.094 165.622C836.38 164.591 837.966 162.45 846.53 153.251C857.71 141.117 861.12 136.359 861.12 132.553C861.12 128.905 858.503 129.301 853.666 133.821C849.86 137.39 849.622 137.549 849.384 135.804C849.226 134.773 849.702 133.108 850.336 131.997C851.367 130.491 851.446 130.094 850.574 130.094C849.939 130.094 848.909 130.729 848.195 131.522C847.481 132.315 844.151 133.821 840.821 134.852C835.905 136.438 834.398 137.311 832.416 139.769C831.147 141.435 829.482 142.783 828.768 142.783C827.975 142.783 826.152 141.593 824.566 140.086C822.187 137.945 821.711 137.073 822.028 135.17C822.266 133.901 822.98 132.235 823.614 131.522C825.517 129.38 824.011 128.112 821.87 130.094C820.918 130.967 819.808 131.68 819.412 131.522C819.015 131.442 817.905 131.601 816.874 131.997C815.526 132.473 814.416 131.997 811.8 129.777C809.976 128.191 808.231 126.922 807.835 126.922C806.725 126.922 807.121 121.767 808.469 119.864C809.421 118.516 809.5 117.802 808.866 117.168C808.152 116.454 807.439 116.851 806.091 118.595C805.06 119.943 803.95 120.736 803.632 120.419C802.522 119.388 798.478 122.164 798.478 123.909C798.478 125.415 793.483 132.473 791.976 133.108C791.58 133.266 791.342 133.742 791.342 134.218C791.342 135.725 785.633 142.862 784.682 142.545C784.206 142.386 783.809 140.8 783.809 139.055C783.809 137.152 783.254 135.408 782.382 134.535C781.668 133.742 781.193 132.87 781.431 132.473C781.668 132.156 780.717 131.442 779.369 130.967C777.069 130.173 776.911 129.856 777.387 127.556C777.624 126.208 778.417 124.464 779.052 123.75C780.717 121.926 780.558 120.023 778.655 118.992C777.783 118.516 777.069 117.644 777.069 117.009C777.069 115.661 776.039 114.947 772.55 114.234C770.33 113.678 769.695 113.837 768.902 115.106C767.475 117.326 766.444 117.009 763.272 113.203C760.656 110.11 760.339 109.951 759.308 111.22C758.118 112.885 755.66 113.123 755.66 111.617C755.66 111.061 755.026 110.268 754.154 109.713C752.885 108.92 752.568 109.079 751.775 110.744C750.744 113.044 749.872 113.123 747.097 111.22C742.656 108.365 741.705 107.81 740.436 107.413C739.643 107.096 739.009 106.779 739.009 106.541C739.009 105.51 742.339 99.959 742.974 99.959C743.449 99.959 743.766 99.0866 743.766 97.9764C743.766 96.8661 744.242 95.9938 744.797 95.9938C745.432 95.9938 745.828 94.8043 745.828 92.8217C745.907 90.4426 745.59 89.5702 744.48 89.253C743.608 88.9358 741.467 86.9532 739.643 84.7328C736.075 80.609 730.128 77.0403 727.67 77.5955C726.877 77.7541 725.053 76.961 723.626 75.9301L721.089 73.9475L717.283 81.402C714.111 87.7463 713.239 88.8565 711.653 88.8565C710.146 88.8565 709.671 88.46 709.671 87.0325C709.591 85.4465 709.512 85.4465 708.798 86.636C707.768 88.46 706.816 88.46 705.151 86.4774C704.358 85.6051 703.486 84.8914 703.169 84.8914C702.772 84.8914 700.71 83.6225 698.57 82.1157C696.429 80.609 694.129 79.3401 693.495 79.3401C692.94 79.3401 691.988 78.785 691.354 78.0713C690.482 77.0403 690.561 76.4059 691.671 74.344C692.464 72.9166 693.416 70.6168 693.812 69.11C695.001 64.8276 692.86 67.4447 691.433 72.0442C690.085 76.3266 687.548 77.5162 685.724 74.6612C685.169 73.7096 684.138 72.9959 683.504 72.9959C681.759 72.9959 680.332 71.4098 680.332 69.5065C680.332 68.2377 680.094 68.1584 679.381 68.8721C678.191 70.0617 675.416 70.141 674.227 68.9514C673.672 68.3963 673.592 67.3653 674.068 66.0172C677.953 54.3596 679.777 49.6014 680.411 49.1256C680.887 48.8877 680.649 48.2533 679.856 47.5395C678.588 46.5086 673.037 44.2881 672.641 44.7639C672.482 44.8432 672.244 46.1914 672.006 47.6982C671.61 50.3152 671.61 50.3152 672.482 48.174C673.434 45.6363 674.702 45.4777 677.16 47.4602L678.905 48.8877L675.971 57.2145C674.306 61.7348 672.799 65.9379 672.641 66.4137C672.086 67.8412 668.835 67.6826 667.725 66.3344C666.932 65.4621 667.011 64.3518 668.042 61.4176C668.676 59.435 669.152 57.5317 668.914 57.3731C668.676 57.1352 668.121 58.4834 667.566 60.2281C666.297 64.4311 665.267 65.3035 662.571 64.3518C660.588 63.5588 660.509 63.6381 659.082 68.3963C657.417 74.1061 654.8 76.7231 651.39 75.8508C649.804 75.4543 649.329 74.8992 649.646 73.7889C650.518 70.4582 646.553 68.8721 637.99 69.0307C634.66 69.11 631.171 66.6516 631.171 64.2725C631.171 63.5588 630.853 62.6865 630.457 62.2899C629.981 61.8141 630.298 58.4041 631.25 53.2494C632.122 48.7291 632.677 44.8432 632.36 44.6053C631.171 43.4158 630.061 46.5086 629.902 51.584C629.664 58.7213 629.03 61.6555 627.523 62.2106C625.303 63.083 625.303 59.1971 627.682 47.3809C627.999 45.7949 627.84 45.2398 626.889 45.2398C625.699 45.2398 625.382 46.4293 624.431 54.5975C623.479 63.0037 622.052 64.1139 615.391 61.4176C612.458 60.2281 612.22 60.3074 610.317 62.052C609.207 63.083 607.938 65.4621 607.383 67.286C606.352 71.4098 603.735 72.9959 600.643 71.5684C598.343 70.5375 598.185 69.2686 600.009 66.7309C601.198 64.9069 601.198 64.7483 599.85 63.7967C599.057 63.1623 597.63 62.6865 596.678 62.6865C595.727 62.6865 594.379 62.2106 593.586 61.6555C592.317 60.7039 592.238 59.9901 593.11 52.8529C593.586 48.5705 593.903 44.9225 593.665 44.7639C593.507 44.6053 592.872 47.2223 592.317 50.5531C590.811 59.6729 590.493 60.3074 587.242 60.3074C585.815 60.3074 584.229 59.8315 583.754 59.2764C582.723 58.0869 583.991 38.3404 585.102 36.9922C585.498 36.5164 585.974 33.9787 586.132 31.3617C586.37 26.7621 586.291 26.6035 584.388 26.6035C582.564 26.6035 582.406 27 581.93 30.9652C581.613 34.058 581.771 35.7234 582.564 36.5957C583.516 37.7059 583.436 39.3713 582.326 47.8568C581.613 53.3287 580.74 58.1662 580.423 58.7213C580.027 59.2764 578.52 59.435 575.666 59.0385C572.494 58.642 571.384 58.0869 571.067 56.9766C570.75 55.5492 570.67 55.5492 569.639 56.8973C568.133 58.9592 565.675 57.2938 565.992 54.3596C566.151 52.7736 565.833 52.1391 564.485 51.8219C562.979 51.4254 562.9 51.0289 563.375 48.0947C564.327 43.0986 564.248 41.0367 563.217 40.7195C562.662 40.4816 561.869 41.2746 561.393 42.3848C560.917 43.8123 560.045 44.4467 558.776 44.4467C557.746 44.4467 556.477 44.9225 555.922 45.3984C555.129 46.2707 554.812 46.1914 554.177 45.0018C553.147 43.1779 550.609 43.2572 550.054 45.2398C549.816 46.1914 548.944 46.8258 547.993 46.8258C547.12 46.8258 545.931 46.1121 545.376 45.2398C544.504 43.9709 543.473 43.6537 539.429 43.6537C533.561 43.6537 532.055 43.1779 532.055 41.1953C532.055 38.6576 529.755 39.5299 529.042 42.2262C528.566 44.2881 527.931 44.9225 526.266 45.0811C524.363 45.3191 524.125 45.0811 524.125 42.8607C524.125 40.8781 523.808 40.4023 522.777 40.6402C521.747 40.7988 521.271 41.7504 521.112 43.733C520.874 46.4293 520.795 46.5086 516.355 47.3809C513.897 47.8568 510.091 48.3326 507.87 48.3326C505.729 48.4119 503.589 48.8084 503.192 49.2842C502.716 49.6807 501.051 49.9979 499.386 49.9979C496.769 49.9979 496.373 49.76 496.373 48.174C496.373 46.4293 496.294 46.4293 495.342 48.4119C494.549 49.9979 493.677 50.3945 491.536 50.3945C489.95 50.3945 488.126 50.8703 487.413 51.5047C486.62 52.0598 484.479 52.6943 482.576 52.7736L479.166 53.0115L478.611 47.9361C478.056 42.5434 478.453 40.8781 480.118 41.5918C481.704 42.1469 482.893 38.4197 482.338 34.5338C481.942 31.3617 481.704 30.9652 480.197 31.441C477.184 32.3133 476.946 33.1857 477.263 42.4641C477.422 50.2359 477.343 51.6633 476.233 52.0598C473.695 53.0115 472.823 50.9496 472.268 42.7814C471.634 33.8201 471.158 32.7891 464.259 25.8898C459.898 21.5281 457.202 19.7834 455.22 20.0213C454.506 20.0213 452.762 20.2592 451.414 20.4178ZM686.676 82.9881C698.014 89.253 698.252 89.4909 695.556 92.8217C694.208 94.487 694.129 94.487 691.195 93.1389C689.609 92.3459 688.261 91.3149 688.261 90.8391C688.261 90.3633 685.883 89.0944 682.949 88.0635C679.936 87.1118 677.24 86.0016 676.843 85.6051C675.892 84.8121 677.874 79.3401 679.143 79.3401C679.698 79.3401 683.107 81.0055 686.676 82.9881ZM541.173 110.268C620.783 116.058 693.495 143.179 755.978 190.206C778.021 206.86 805.615 232.95 822.266 252.935C874.837 316.298 905.365 388.781 914.405 472.288C915.99 487.197 915.753 538.902 914.008 553.811C908.14 602.662 896.405 643.82 876.265 685.613C821.87 798.541 716.41 880.382 593.903 904.887C551.481 913.372 506.285 915.037 463.863 909.645C418.587 903.856 378.465 891.802 337.391 871.579C297.031 851.833 262.776 827.328 231.059 795.845C198.708 763.648 174.127 729.309 153.828 687.992C131.547 642.789 120.129 602.424 114.023 547.229C112.437 532.875 112.675 487.276 114.499 471.098C122.666 395.839 148.753 329.145 193.078 270.064C221.148 232.633 256.433 199.643 295.366 174.345C354.518 135.883 418.19 115.027 491.615 110.03C500.575 109.396 531.182 109.555 541.173 110.268ZM254.53 122.719C255.164 123.988 256.195 125.574 256.829 126.367C257.781 127.477 257.781 128.112 257.147 129.222C256.671 129.936 256.433 131.601 256.671 132.79C257.147 135.011 256.036 136.438 254.054 136.438C252.627 136.438 248.186 128.984 248.186 126.605C248.186 123.909 250.327 120.578 252.072 120.578C252.865 120.578 253.975 121.529 254.53 122.719ZM803.87 139.769C805.377 141.276 804.98 142.465 802.285 145.4C799.906 147.858 797.606 148.81 792.532 149.365C789.677 149.682 790.232 146.51 793.721 142.545C796.575 139.373 797.448 138.818 799.985 138.818C801.571 138.818 803.315 139.214 803.87 139.769ZM172.383 209.318C173.731 210.825 173.731 210.983 171.986 213.283C170.955 214.631 169.607 215.742 168.894 215.742C168.18 215.742 165.881 217.883 163.898 220.5C161.837 223.117 159.696 225.258 159.141 225.258C158.506 225.258 157.238 224.306 156.128 223.196L154.224 221.134L161.123 214.473C164.929 210.825 168.735 207.811 169.528 207.811C170.321 207.811 171.669 208.525 172.383 209.318ZM975.222 533.668C976.174 534.303 976.094 535.413 975.064 541.361C972.764 553.732 972.447 554.366 969.354 554.366C966.579 554.366 966.579 554.287 966.579 550.877C966.579 548.815 967.055 547.07 967.769 546.436C968.641 545.722 968.958 543.819 968.958 539.695C968.958 535.809 969.275 533.748 969.989 533.51C971.575 532.796 974.033 532.955 975.222 533.668ZM71.6807 638.031C71.9186 638.666 72.9494 639.221 73.9802 639.221C76.2004 639.221 78.1034 641.045 77.4691 642.631C76.9933 643.9 71.6807 645.565 68.0332 645.565C66.1302 645.565 64.7029 644.931 63.5135 643.662C60.8969 640.807 61.6105 638.983 65.813 637.873C70.6499 636.604 71.1256 636.683 71.6807 638.031ZM950.8 662.615C955.637 664.36 957.064 665.867 957.064 669.515C957.064 673.163 955.795 673.876 952.148 672.29C950.721 671.656 948.897 670.863 948.025 670.625C947.232 670.308 946.756 669.673 946.994 669.039C947.232 668.404 946.756 667.294 945.884 666.501C945.091 665.787 944.377 664.281 944.377 663.25C944.377 661.029 945.884 660.871 950.8 662.615ZM125.283 744.853C126.155 746.28 126.71 747.946 126.472 748.501C126.234 749.056 127.503 751.673 129.247 754.21C130.992 756.748 132.419 759.365 132.419 760C132.419 761.189 129.168 763.727 127.661 763.727C126.71 763.727 120.208 750.483 119.336 746.835C118.939 745.329 119.256 744.535 120.604 743.584C123.142 741.839 123.459 741.918 125.283 744.853ZM634.66 953.341C636.008 957.147 635.056 957.782 626.651 958.813C622.369 959.289 617.77 959.606 616.501 959.447C614.361 959.209 614.123 958.892 614.123 956.434C614.123 953.975 614.361 953.658 616.898 953.182C618.405 952.865 620.07 952.944 620.466 953.262C621.021 953.737 623.241 953.341 626.096 952.469C632.043 950.565 633.708 950.724 634.66 953.341ZM504.937 971.66C505.095 974.198 504.778 976.973 504.302 977.846C503.271 979.749 498.99 982.049 497.483 981.493C495.976 980.938 496.056 971.501 497.642 971.501C498.197 971.501 499.307 970.391 500.1 969.122C501.051 967.457 502.003 966.743 503.113 966.902C504.461 967.14 504.699 967.853 504.937 971.66Z" fill="#A3B8AC"/>
<path d="M494.549 27.4754C493.836 28.1891 493.836 31.9956 494.549 36.0401C495.025 38.9743 495.104 38.9743 495.976 37.309C497.483 34.454 496.214 25.81 494.549 27.4754Z" fill="#A3B8AC"/>
<path d="M592.793 29.5377C591.604 35.3268 591.683 37.2301 593.11 38.499C594.934 40.085 595.33 39.4506 596.282 33.5822C596.837 30.1721 596.837 28.9033 596.044 28.4275C594.299 27.3172 593.11 27.7137 592.793 29.5377Z" fill="#A3B8AC"/>
<path d="M489.237 33.1855C489.237 36.199 489.554 38.1023 490.109 38.1023C490.664 38.1023 490.743 36.5955 490.347 33.5027C489.633 27.3964 489.237 27.3171 489.237 33.1855Z" fill="#A3B8AC"/>
<path d="M570.67 44.6051C570.512 46.0325 570.512 47.6979 570.75 48.3323C571.384 49.9977 573.287 46.9842 573.287 44.2879C573.287 41.1157 571.146 41.4329 570.67 44.6051Z" fill="#A3B8AC"/>
<path d="M684.218 51.9011C685.169 53.8837 685.724 54.3595 686.517 53.8043C688.024 52.5355 687.706 51.7425 685.248 50.4736L682.949 49.2841L684.218 51.9011Z" fill="#A3B8AC"/>
<path d="M669.865 52.8527C669.469 53.1699 669.231 54.1215 669.231 55.0732C669.231 56.1834 669.469 56.4213 670.103 55.7869C670.579 55.3111 670.817 54.2801 670.658 53.5664C670.579 52.8527 670.183 52.5354 669.865 52.8527Z" fill="#A3B8AC"/>
<path d="M691.116 55.0735C691.354 55.7079 690.561 58.4835 689.451 61.2592C686.834 67.3655 686.121 70.2997 687.31 69.5067C687.786 69.2688 688.42 67.9206 688.658 66.5725C689.451 62.9245 692.94 56.3424 694.05 56.3424C694.605 56.3424 694.288 55.7872 693.495 55.1528C691.512 53.646 690.561 53.646 691.116 55.0735Z" fill="#A3B8AC"/>
<path d="M696.746 58.6421C696.984 59.5938 697.618 59.9903 698.252 59.7524C699.68 59.1973 699.68 58.9593 697.856 58.0077C696.587 57.294 696.429 57.3733 696.746 58.6421Z" fill="#A3B8AC"/>
<path d="M682.79 59.99C682.79 60.8623 683.028 61.1002 683.266 60.4658C683.504 59.9107 683.425 59.1969 683.187 58.959C682.949 58.6418 682.711 59.1176 682.79 59.99Z" fill="#A3B8AC"/>
<path d="M695.557 62.052C694.446 63.1623 694.209 66.1758 695.319 65.5414C695.874 65.1448 697.063 61.1004 696.667 61.1004C696.587 61.1004 696.112 61.4969 695.557 62.052Z" fill="#A3B8AC"/>
<path d="M702.534 62.3691C702.534 63.0036 702.931 63.3208 703.327 63.0829C703.803 62.7657 703.961 62.2105 703.723 61.814C703.01 60.7038 702.534 60.9417 702.534 62.3691Z" fill="#A3B8AC"/>
<path d="M681.68 62.3693C681.363 62.6865 681.125 63.4796 681.125 64.1933C681.125 65.0656 681.363 65.1449 681.997 64.5105C682.473 64.0347 682.79 63.2417 682.552 62.6865C682.394 62.2107 681.997 62.0521 681.68 62.3693Z" fill="#A3B8AC"/>
<path d="M699.918 67.1271C699.6 67.4444 699.362 68.2374 699.362 68.9511C699.362 69.8235 699.6 69.9028 700.235 69.2683C700.711 68.7925 701.028 67.9995 700.79 67.4444C700.631 66.9685 700.235 66.8099 699.918 67.1271Z" fill="#A3B8AC"/>
<path d="M696.746 74.0269C695.873 76.3267 696.032 77.4369 697.063 76.406C697.539 75.9301 697.776 74.8992 697.618 74.1062C697.38 72.6787 697.301 72.6787 696.746 74.0269Z" fill="#A3B8AC"/>
<path d="M700.948 78.8643C700.948 79.5781 701.345 80.1332 701.741 80.1332C702.217 80.1332 702.534 79.816 702.534 79.4195C702.534 78.9436 702.217 78.3885 701.741 78.1506C701.345 77.9127 700.948 78.2299 700.948 78.8643Z" fill="#A3B8AC"/>
<path d="M704.596 82.909C704.913 83.5434 705.389 84.0985 705.785 84.0985C706.182 84.0985 706.499 83.5434 706.499 82.909C706.499 82.2745 705.944 81.7194 705.309 81.7194C704.596 81.7194 704.358 82.1952 704.596 82.909Z" fill="#A3B8AC"/>
<path d="M750.506 106.303C750.744 106.7 751.141 107.096 751.379 107.096C751.537 107.096 751.696 106.7 751.696 106.303C751.696 105.827 751.299 105.51 750.823 105.51C750.427 105.51 750.268 105.827 750.506 106.303Z" fill="#A3B8AC"/>
<path d="M201.404 161.022C201.404 161.419 201.8 161.815 202.197 161.815C202.672 161.815 202.99 161.419 202.99 161.022C202.99 160.546 202.672 160.229 202.197 160.229C201.8 160.229 201.404 160.546 201.404 161.022Z" fill="#A3B8AC"/>
<path d="M144.789 192.664C144.551 193.06 144.868 193.536 145.502 193.853C146.216 194.091 146.692 193.853 146.692 193.14C146.692 191.871 145.423 191.554 144.789 192.664Z" fill="#A3B8AC"/>
<path d="M164.929 196.867C164.929 197.185 165.484 197.502 166.118 197.502C166.753 197.502 167.308 197.185 167.308 196.867C167.308 196.471 166.753 196.154 166.118 196.154C165.484 196.154 164.929 196.471 164.929 196.867Z" fill="#A3B8AC"/>
<path d="M149.467 197.502C149.705 197.898 150.339 198.295 150.736 198.295C151.211 198.295 151.291 197.898 151.053 197.502C150.815 197.026 150.181 196.709 149.784 196.709C149.308 196.709 149.229 197.026 149.467 197.502Z" fill="#A3B8AC"/>
<path d="M135.274 200.594C133.767 202.26 133.767 202.26 135.274 202.26C136.146 202.26 139.08 204.242 141.855 206.622C144.63 209.08 147.088 210.825 147.405 210.587C147.643 210.269 146.85 209.239 145.502 208.128C139.555 203.449 137.811 201.784 137.256 200.436C136.78 199.088 136.622 199.088 135.274 200.594Z" fill="#A3B8AC"/>
<path d="M160.568 199.881C160.806 200.278 161.361 200.674 161.837 200.674C162.233 200.674 162.55 200.278 162.55 199.881C162.55 199.405 161.995 199.088 161.282 199.088C160.647 199.088 160.33 199.405 160.568 199.881Z" fill="#A3B8AC"/>
<path d="M153.828 201.388C153.828 202.102 157.079 204.005 157.555 203.529C157.793 203.371 157.713 202.815 157.475 202.419C156.92 201.467 153.828 200.595 153.828 201.388Z" fill="#A3B8AC"/>
<path d="M129.009 206.066C127.186 208.049 127.344 208.842 129.327 207.811C130.199 207.256 131.467 207.097 132.102 207.335C133.45 207.89 133.529 206.859 132.26 205.591C130.992 204.322 130.516 204.401 129.009 206.066Z" fill="#A3B8AC"/>
<path d="M136.78 210.983C137.018 211.38 137.652 211.776 138.049 211.776C138.524 211.776 138.604 211.38 138.366 210.983C138.128 210.508 137.494 210.19 137.097 210.19C136.621 210.19 136.542 210.508 136.78 210.983Z" fill="#A3B8AC"/>
<path d="M139.159 213.362C139.397 213.759 140.269 214.156 140.983 214.156C142.172 214.156 142.172 213.997 141.141 213.362C139.555 212.332 138.524 212.332 139.159 213.362Z" fill="#A3B8AC"/>
<path d="M126.155 220.975C127.582 222.72 130.119 223.989 129.644 222.72C129.406 222.165 128.296 221.293 127.186 220.737C125.441 219.944 125.283 219.944 126.155 220.975Z" fill="#A3B8AC"/>
<path d="M79.7686 285.211C79.5307 285.925 79.2928 286.559 79.2928 286.797C79.2928 286.956 81.0373 287.987 83.1782 289.097C86.6671 290.842 87.3014 290.921 89.1252 289.969C91.5039 288.78 91.1868 288.304 85.8742 285.608C81.9095 283.625 80.4029 283.546 79.7686 285.211Z" fill="#A3B8AC"/>
<path d="M85.9534 310.984C85.3983 311.936 85.3191 311.936 88.6493 313.601C91.5039 315.029 92.4554 314.87 91.7418 313.046C91.1867 311.54 86.667 309.953 85.9534 310.984Z" fill="#A3B8AC"/>
<path d="M960.315 339.692C957.936 340.565 956.43 341.516 956.985 341.675C958.174 342.072 964.755 339.613 965.39 338.582C966.103 337.551 965.152 337.71 960.315 339.692Z" fill="#A3B8AC"/>
<path d="M963.09 344.213C958.174 346.116 956.826 347.385 959.602 347.385C962.218 347.385 968.958 344.53 968.958 343.42C968.958 342.31 967.531 342.468 963.09 344.213Z" fill="#A3B8AC"/>
<path d="M48.5272 380.058C48.9236 381.248 53.6019 382.913 56.615 382.992C59.9453 383.072 57.963 381.089 53.5226 379.979C49.0822 378.869 48.1307 378.869 48.5272 380.058Z" fill="#A3B8AC"/>
<path d="M47.5757 385.768C47.5757 386.402 56.2979 388.86 56.8529 388.305C57.0908 388.067 56.3772 387.512 55.2671 387.116C52.4918 386.085 47.5757 385.212 47.5757 385.768Z" fill="#A3B8AC"/>
<path d="M973.002 421.216C971.654 421.772 971.337 422.247 971.892 422.802C973.002 423.913 978.473 422.802 978.473 421.454C978.473 420.185 975.857 420.106 973.002 421.216Z" fill="#A3B8AC"/>
<path d="M991.794 437.553C989.336 437.949 986.64 441.359 988.305 441.993C989.495 442.469 997.662 441.042 998.534 440.249C998.851 439.932 998.931 439.059 998.614 438.346C998.138 436.997 996.552 436.839 991.794 437.553Z" fill="#A3B8AC"/>
<path d="M983.072 442.311C983.627 442.549 984.341 442.47 984.579 442.232C984.896 441.994 984.42 441.756 983.548 441.835C982.676 441.835 982.438 442.073 983.072 442.311Z" fill="#A3B8AC"/>
<path d="M989.178 517.887C988.94 518.283 989.416 518.68 990.288 518.68C991.16 518.68 992.112 518.283 992.349 517.887C992.587 517.411 992.112 517.094 991.239 517.094C990.367 517.094 989.416 517.411 989.178 517.887Z" fill="#A3B8AC"/>
<path d="M995.917 517.887C994.966 518.521 995.045 518.68 996.552 518.68C997.503 518.68 998.296 518.283 998.296 517.887C998.296 516.856 997.424 516.856 995.917 517.887Z" fill="#A3B8AC"/>
<path d="M1002.34 517.808C1001.47 518.363 1001.79 518.601 1003.53 518.839C1006.38 519.156 1007.02 521.852 1004.72 524.152C1003.37 525.5 1003.29 525.738 1004.4 526.214C1005.12 526.452 1005.99 526.214 1006.38 525.659C1007.26 524.231 1007.18 517.887 1006.3 517.887C1005.91 517.887 1005.12 517.728 1004.48 517.49C1003.93 517.252 1002.97 517.411 1002.34 517.808Z" fill="#A3B8AC"/>
<path d="M997.9 525.024C997.583 525.5 998.296 525.817 999.406 525.817C1000.52 525.817 1001.47 525.421 1001.47 525.024C1001.47 524.548 1000.75 524.231 999.961 524.231C999.089 524.231 998.138 524.548 997.9 525.024Z" fill="#A3B8AC"/>
<path d="M1003.21 531.131C1001.07 533.51 1001.07 533.431 1002.97 533.986C1004.24 534.303 1004.64 533.827 1005.04 532.003C1005.75 528.91 1005.35 528.673 1003.21 531.131Z" fill="#A3B8AC"/>
<path d="M990.764 532.161C990.526 532.558 990.843 532.954 991.477 532.954C992.112 532.954 992.904 532.558 993.142 532.161C993.38 531.686 993.063 531.368 992.429 531.368C991.794 531.368 991.001 531.686 990.764 532.161Z" fill="#A3B8AC"/>
<path d="M995.125 532.161C994.094 532.796 994.173 532.954 995.362 532.954C996.076 532.954 996.71 532.558 996.71 532.161C996.71 531.21 996.631 531.21 995.125 532.161Z" fill="#A3B8AC"/>
<path d="M988.305 538.585C988.068 538.981 988.543 539.299 989.336 539.299C995.363 539.457 1001.86 540.25 1002.34 540.964C1002.66 541.519 1003.05 541.36 1003.37 540.488C1004.16 538.347 1003.93 537.395 1002.9 538.268C1001.86 538.981 1000.04 538.981 992.508 538.268C990.446 538.03 988.543 538.188 988.305 538.585Z" fill="#A3B8AC"/>
<path d="M985.927 544.136C984.579 544.612 984.658 544.691 986.402 545.167C987.513 545.484 989.257 545.405 990.367 545.008C992.27 544.295 992.27 544.295 989.812 543.898C988.464 543.74 986.72 543.819 985.927 544.136Z" fill="#A3B8AC"/>
<path d="M994.728 544.929C993.46 545.405 993.618 545.564 995.759 545.564C998.376 545.643 999.01 545.246 997.345 544.612C996.79 544.453 995.601 544.533 994.728 544.929Z" fill="#A3B8AC"/>
<path d="M1000.75 544.771C999.961 545.246 999.961 545.564 1000.68 546.04C1001.71 546.674 1002.58 546.119 1002.18 544.929C1001.94 544.453 1001.39 544.374 1000.75 544.771Z" fill="#A3B8AC"/>
<path d="M983.865 550.56C984.499 551.194 985.213 551.194 986.561 550.56C988.305 549.767 988.226 549.688 985.689 549.688C983.548 549.608 983.151 549.846 983.865 550.56Z" fill="#A3B8AC"/>
<path d="M991.794 550.956C992.27 551.115 993.222 551.115 993.777 550.956C994.252 550.718 993.856 550.56 992.746 550.56C991.636 550.56 991.239 550.718 991.794 550.956Z" fill="#A3B8AC"/>
<path d="M999.327 551.035C998.772 551.352 998.614 552.066 999.01 552.701C999.486 553.494 999.803 553.414 1000.2 552.304C1000.83 550.718 1000.52 550.321 999.327 551.035Z" fill="#A3B8AC"/>
<path d="M982.041 555.08C981.566 555.952 982.755 556.904 983.548 556.19C984.262 555.476 984.103 554.366 983.31 554.366C982.834 554.366 982.358 554.683 982.041 555.08Z" fill="#A3B8AC"/>
<path d="M980.059 560.314C979.266 561.266 979.266 561.504 980.297 561.504C981.804 561.504 982.755 560.235 981.724 559.6C981.328 559.362 980.614 559.68 980.059 560.314Z" fill="#A3B8AC"/>
<path d="M972.526 610.672C972.288 611.068 972.447 611.465 972.843 611.465C973.319 611.465 973.715 611.068 973.715 610.672C973.715 610.196 973.557 609.879 973.398 609.879C973.16 609.879 972.764 610.196 972.526 610.672Z" fill="#A3B8AC"/>
<path d="M84.6053 699.254C84.2882 699.492 84.0503 700.126 84.0503 700.602C84.0503 701.078 84.4468 700.998 85.0018 700.443C85.4776 699.967 85.7154 699.333 85.5569 699.095C85.319 698.857 84.8432 698.936 84.6053 699.254Z" fill="#A3B8AC"/>
<path d="M107.045 745.011C107.045 745.646 107.442 746.439 107.838 746.677C108.314 746.915 108.631 746.439 108.631 745.566C108.631 744.615 108.314 743.901 107.838 743.901C107.442 743.901 107.045 744.377 107.045 745.011Z" fill="#A3B8AC"/>
<path d="M108.235 750.324C107.918 750.8 107.838 751.355 108.076 751.593C108.631 752.148 110.217 751.117 110.217 750.166C110.217 749.214 108.869 749.214 108.235 750.324Z" fill="#A3B8AC"/>
<path d="M109.028 756.589C108.235 757.462 107.838 758.175 108.155 758.175C109.265 758.175 111.803 756.51 111.803 755.796C111.803 754.527 110.534 754.924 109.028 756.589Z" fill="#A3B8AC"/>
<path d="M103.081 760.158C102.446 760.872 102.446 761.348 102.922 761.348C103.874 761.348 104.984 759.841 104.429 759.286C104.27 759.127 103.636 759.444 103.081 760.158Z" fill="#A3B8AC"/>
<path d="M96.7372 762.934C96.7372 763.965 98.1645 764.679 98.6402 763.806C98.8781 763.41 98.5609 762.934 97.9266 762.617C97.2922 762.379 96.7372 762.537 96.7372 762.934Z" fill="#A3B8AC"/>
<path d="M105.856 765.313C104.904 765.63 103.715 766.582 103.081 767.375C101.971 768.643 102.05 768.643 103.477 767.85C105.38 766.819 108.393 764.599 107.838 764.599C107.6 764.599 106.728 764.916 105.856 765.313Z" fill="#A3B8AC"/>
<path d="M111.406 768.802C108.869 770.705 105.222 772.847 102.922 773.719C102.129 773.957 101.495 774.671 101.495 775.305C101.495 776.653 103.081 777.605 103.081 776.257C103.16 775.146 109.345 770.864 110.931 770.864C111.406 770.864 111.803 770.547 111.803 770.15C111.803 769.754 112.516 769.278 113.389 769.04C114.261 768.802 114.975 768.247 114.975 767.771C114.975 766.423 114.023 766.74 111.406 768.802Z" fill="#A3B8AC"/>
<path d="M99.1161 769.199C99.1161 770.547 100.543 770.864 101.019 769.675C101.257 768.961 101.019 768.485 100.305 768.485C99.6711 768.485 99.1161 768.802 99.1161 769.199Z" fill="#A3B8AC"/>
<path d="M112.992 776.019C111.724 777.05 111.01 777.922 111.406 777.922C111.882 777.922 113.309 777.05 114.578 776.019C115.926 774.908 116.64 774.036 116.164 774.036C115.768 774.036 114.34 774.908 112.992 776.019Z" fill="#A3B8AC"/>
<path d="M105.301 780.142C104.032 780.46 103.953 780.697 105.063 782.839C105.777 784.107 106.411 785.138 106.57 785.138C106.728 785.138 107.045 783.87 107.204 782.363C107.363 780.856 107.363 779.667 107.045 779.667C106.808 779.746 106.015 779.904 105.301 780.142Z" fill="#A3B8AC"/>
<path d="M120.763 787.835C119.732 788.311 118.781 789.104 118.622 789.659C117.988 791.325 119.336 790.849 121.318 788.708C123.38 786.566 123.3 786.487 120.763 787.835Z" fill="#A3B8AC"/>
<path d="M167.387 848.978C164.612 851.991 164.215 852.784 164.929 854.132C165.405 855.005 166.118 855.719 166.436 855.719C167.942 855.719 172.858 849.295 172.858 847.392C172.858 844.458 171.114 844.933 167.387 848.978Z" fill="#A3B8AC"/>
<path d="M193.157 853.26C190.144 856.432 191.254 858.177 194.347 855.243C196.567 853.181 197.36 850.96 196.012 850.96C195.615 850.96 194.347 851.991 193.157 853.26Z" fill="#A3B8AC"/>
<path d="M803.632 877.923C804.425 878.796 805.218 879.509 805.456 879.509C805.694 879.509 805.218 878.796 804.425 877.923C803.632 877.051 802.839 876.337 802.602 876.337C802.364 876.337 802.839 877.051 803.632 877.923Z" fill="#A3B8AC"/>
<path d="M811.958 880.065C812.038 881.096 817.509 886.964 817.905 886.488C818.381 886.012 813.465 879.509 812.593 879.509C812.275 879.509 811.958 879.747 811.958 880.065Z" fill="#A3B8AC"/>
<path d="M807.121 882.919C809.024 886.726 812.593 891.405 813.623 891.405C815.368 891.405 814.02 888.788 809.976 884.506C805.853 880.144 805.694 880.065 807.121 882.919Z" fill="#A3B8AC"/>
<path d="M250.486 905.124C248.424 906.79 245.015 911.786 245.015 912.975C245.015 913.372 245.491 913.61 246.046 913.61C246.918 913.61 249.772 909.565 252.072 905.045C253.182 902.904 253.103 902.904 250.486 905.124Z" fill="#A3B8AC"/>
<path d="M252.944 911.707C251.517 913.689 250.565 915.513 250.803 915.751C251.279 916.148 256.116 909.803 256.116 908.693C256.116 907.424 255.402 908.138 252.944 911.707Z" fill="#A3B8AC"/>
<path d="M739.802 919.558C739.802 921.54 741.626 924.713 742.736 924.713C744.084 924.713 744.084 923.602 742.577 920.747C741.308 918.21 739.802 917.575 739.802 919.558Z" fill="#A3B8AC"/>
<path d="M726.322 939.939C726.322 940.335 727.353 942.714 728.701 945.252C730.604 949.138 731.317 949.852 732.665 949.534C734.727 948.979 734.648 947.552 732.269 943.349C730.921 941.208 729.573 939.859 728.304 939.542C727.194 939.384 726.322 939.542 726.322 939.939Z" fill="#A3B8AC"/>
<path d="M654.166 964.76C654.166 965.633 654.562 966.901 654.959 967.536C655.593 968.488 655.751 968.488 655.751 967.139C655.751 966.267 655.355 964.998 654.959 964.364C654.324 963.412 654.166 963.412 654.166 964.76Z" fill="#A3B8AC"/>
<path d="M627.999 969.995C627.999 971.184 628.554 973.325 629.188 974.753L630.457 977.449L629.981 973.96C629.426 969.598 628.078 966.902 627.999 969.995Z" fill="#A3B8AC"/>
<path d="M610.158 969.915C610.396 970.312 611.427 970.708 612.378 970.708C613.806 970.708 613.885 970.55 612.933 969.915C611.348 968.884 609.524 968.884 610.158 969.915Z" fill="#A3B8AC"/>
<path d="M615.788 969.757C615.55 970.233 615.709 970.867 616.184 971.105C617.374 971.898 618.167 970.867 617.136 969.836C616.581 969.281 616.105 969.281 615.788 969.757Z" fill="#A3B8AC"/>
<path d="M621.656 969.995C621.656 970.629 622.211 971.898 622.845 972.77C623.717 973.96 623.955 974.039 624.034 973.008C624.034 972.374 623.479 971.105 622.845 970.232C621.973 969.043 621.735 968.964 621.656 969.995Z" fill="#A3B8AC"/>
<path d="M655.831 970.312C655.752 972.215 657.02 974.436 657.734 973.722C658.051 973.484 657.734 972.215 657.02 970.946C655.989 969.122 655.831 969.043 655.831 970.312Z" fill="#A3B8AC"/>
<path d="M634.66 972.374C634.977 973.881 635.453 976.339 635.69 977.846C635.928 979.353 636.483 981.097 636.88 981.573C637.356 982.128 637.514 983.159 637.197 983.794C636.88 984.587 637.276 984.983 638.466 984.983C639.576 984.983 639.893 984.666 639.338 983.952C638.307 982.604 636.959 978.005 636.325 974.119C636.008 972.215 635.453 970.471 634.977 970.233C634.422 969.836 634.343 970.55 634.66 972.374Z" fill="#A3B8AC"/>
<path d="M641.479 971.818C641.479 972.532 641.875 973.087 642.272 973.087C642.747 973.087 643.064 972.77 643.064 972.373C643.064 971.898 642.747 971.342 642.272 971.105C641.875 970.867 641.479 971.184 641.479 971.818Z" fill="#A3B8AC"/>
<path d="M642.272 974.832C642.272 975.546 642.668 976.418 643.065 976.656C644.095 977.29 644.095 976.259 643.065 974.673C642.43 973.642 642.272 973.642 642.272 974.832Z" fill="#A3B8AC"/>
<path d="M560.6 977.846C560.6 978.242 560.996 978.639 561.472 978.639C561.869 978.639 562.027 978.242 561.789 977.846C561.552 977.37 561.155 977.053 560.917 977.053C560.759 977.053 560.6 977.37 560.6 977.846Z" fill="#A3B8AC"/>
<path d="M658.051 978.083C658.606 978.797 658.923 979.986 658.606 980.621C658.368 981.335 658.606 981.81 659.24 981.81C660.747 981.81 659.716 977.687 658.051 977.211C657.099 976.814 657.099 976.973 658.051 978.083Z" fill="#A3B8AC"/>
<path d="M623.638 978.639C623.876 979.035 624.51 979.432 624.907 979.432C625.382 979.432 625.462 979.035 625.224 978.639C624.986 978.163 624.351 977.846 623.955 977.846C623.479 977.846 623.4 978.163 623.638 978.639Z" fill="#A3B8AC"/>
<path d="M629.585 978.401C629.585 979.511 631.091 981.414 631.567 980.938C632.201 980.304 631.171 977.845 630.298 977.845C629.902 977.845 629.585 978.083 629.585 978.401Z" fill="#A3B8AC"/>
<path d="M643.857 982.683C643.857 983.794 644.412 984.19 646.236 984.19C647.584 984.19 648.615 984.031 648.615 983.873C648.615 983.635 647.584 983.001 646.236 982.287C644.016 981.177 643.857 981.256 643.857 982.683Z" fill="#A3B8AC"/>
<path d="M630.933 984.189C630.616 985.379 630.933 985.776 632.122 985.776C633.549 985.776 633.629 985.617 632.677 984.348C632.122 983.634 631.567 982.921 631.488 982.762C631.409 982.683 631.171 983.238 630.933 984.189Z" fill="#A3B8AC"/>
<path d="M624.431 984.982C624.193 985.379 624.669 985.776 625.62 985.776C626.572 985.776 627.047 985.379 626.81 984.982C626.572 984.507 626.017 984.189 625.62 984.189C625.224 984.189 624.669 984.507 624.431 984.982Z" fill="#A3B8AC"/>
</svg>
